#!OML:ASF H:\Dans Jumps\Project 1\Capture day 1\Session 1\subject.ASF
:FULLY-SPECIFIED
:DEGREES
260
root 0.362069 17.5126 -14.1446 5.86294 -0.75526 -1.66639
lowerback -1.04625 -0.440705 0.288068
upperback 3.01946 -0.649454 1.60706
thorax 3.70708 -0.341325 1.46528
lowerneck -14.3616 0.643685 -1.9553
upperneck 31.8836 1.23573 0.782843
head 13.0303 0.40624 0.831879
rclavicle -3.42904e-015 1.07344e-014
rhumerus -22.5463 -16.786 -79.576
rradius 24.7678
rwrist 32.7298
rhand -18.9494 -26.3704
rfingers 7.12502
rthumb 7.35397 -56.2226
lclavicle -3.42904e-015 1.07344e-014
lhumerus -21.1547 0.904073 85.36
lradius 18.5709
lwrist 1.26204
lhand -24.3681 -3.09695
lfingers 7.12502
lthumb 2.12184 26.8722
rfemur -13.0962 -2.77406 19.4143
rtibia 21.5937
rfoot -13.5427 -2.90059
rtoes 8.90994
lfemur -12.2916 6.64192 -17.4353
ltibia 20.2195
lfoot -11.7005 4.42746
ltoes -2.2299
261
root 0.361817 17.5122 -14.1456 5.87884 -0.729503 -1.67653
lowerback -1.02198 -0.442597 0.296635
upperback 3.02483 -0.652029 1.60807
thorax 3.69888 -0.342373 1.46156
lowerneck -14.3598 0.644021 -1.9581
upperneck 31.8672 1.23427 0.791106
head 13.0229 0.406578 0.83519
rclavicle -2.48481e-015 7.95139e-016
rhumerus -22.5075 -16.8028 -79.5685
rradius 24.763
rwrist 32.7186
rhand -18.9838 -26.366
rfingers 7.12502
rthumb 7.32079 -56.2194
lclavicle -2.48481e-015 7.95139e-016
lhumerus -21.1088 0.885221 85.343
lradius 18.5955
lwrist 1.28667
lhand -24.3952 -3.12963
lfingers 7.12502
lthumb 2.09564 26.8398
rfemur -13.1256 -2.79321 19.429
rtibia 21.616
rfoot -13.5492 -2.90483
rtoes 8.90668
lfemur -12.342 6.62807 -17.4251
ltibia 20.2682
lfoot -11.7109 4.42029
ltoes -2.22964
262
root 0.362119 17.5118 -14.1473 5.89548 -0.700718 -1.67455
lowerback -0.990061 -0.447086 0.298633
upperback 3.02917 -0.657587 1.60383
thorax 3.68537 -0.345 1.45605
lowerneck -14.3474 0.648099 -1.96235
upperneck 31.8498 1.23673 0.804422
head 13.0127 0.409145 0.841209
rclavicle 6.95746e-015 -7.55382e-015
rhumerus -22.4716 -16.8002 -79.5661
rradius 24.7662
rwrist 32.6888
rhand -18.9958 -26.3836
rfingers 7.12502
rthumb 7.3092 -56.2373
lclavicle 6.95746e-015 -7.55382e-015
lhumerus -21.0691 0.87441 85.3197
lradius 18.6271
lwrist 1.30559
lhand -24.4338 -3.15628
lfingers 7.12502
lthumb 2.05836 26.8135
rfemur -13.1635 -2.83173 19.4293
rtibia 21.6474
rfoot -13.5567 -2.89614
rtoes 8.89335
lfemur -12.399 6.61552 -17.4314
ltibia 20.3226
lfoot -11.7232 4.41152
ltoes -2.23902
263
root 0.362363 17.5112 -14.1496 5.91668 -0.675447 -1.67323
lowerback -0.953971 -0.450102 0.299566
upperback 3.03336 -0.661103 1.5999
thorax 3.66929 -0.346643 1.45156
lowerneck -14.3325 0.650668 -1.96143
upperneck 31.8285 1.23738 0.811711
head 13.0004 0.410781 0.84365
rclavicle 3.08116e-015 5.36719e-015
rhumerus -22.4331 -16.7895 -79.5642
rradius 24.7698
rwrist 32.663
rhand -19.0123 -26.3925
rfingers 7.12502
rthumb 7.29324 -56.2468
lclavicle 3.08116e-015 5.36719e-015
lhumerus -21.0285 0.885261 85.2891
lradius 18.6586
lwrist 1.30972
lhand -24.4767 -3.21066
lfingers 7.12502
lthumb 2.017 26.7596
rfemur -13.2153 -2.86001 19.4306
rtibia 21.6893
rfoot -13.5647 -2.89446
rtoes 8.87275
lfemur -12.4681 6.61079 -17.4383
ltibia 20.3848
lfoot -11.7358 4.40129
ltoes -2.25951
264
root 0.362641 17.5105 -14.1527 5.94148 -0.650846 -1.66967
lowerback -0.910449 -0.452538 0.297725
upperback 3.0381 -0.663654 1.59525
thorax 3.64959 -0.347871 1.44799
lowerneck -14.3158 0.651396 -1.95788
upperneck 31.8019 1.23572 0.815276
head 12.9856 0.411283 0.843771
rclavicle 3.52843e-015 3.18055e-015
rhumerus -22.3911 -16.7756 -79.5625
rradius 24.7745
rwrist 32.6432
rhand -19.0255 -26.3991
rfingers 7.12502
rthumb 7.28057 -56.2539
lclavicle 3.52843e-015 3.18055e-015
lhumerus -20.9856 0.906187 85.2544
lradius 18.6921
lwrist 1.31065
lhand -24.5197 -3.26826
lfingers 7.12502
lthumb 1.97545 26.7023
rfemur -13.2807 -2.88169 19.4292
rtibia 21.7429
rfoot -13.5741 -2.89688
rtoes 8.85827
lfemur -12.5515 6.61292 -17.4493
ltibia 20.4577
lfoot -11.7491 4.38902
ltoes -2.30169
265
root 0.362749 17.5094 -14.1566 5.96973 -0.627327 -1.66841
lowerback -0.859403 -0.453469 0.295503
upperback 3.04434 -0.66415 1.59164
thorax 3.62715 -0.348102 1.44583
lowerneck -14.3015 0.648966 -1.9557
upperneck 31.7698 1.23011 0.818187
head 12.9691 0.409849 0.843246
rclavicle 3.72721e-015 -1.19271e-015
rhumerus -22.3449 -16.7586 -79.5612
rradius 24.7814
rwrist 32.6321
rhand -19.039 -26.3996
rfingers 7.12502
rthumb 7.26748 -56.2548
lclavicle 3.72721e-015 -1.19271e-015
lhumerus -20.9365 0.931602 85.217
lradius 18.723
lwrist 1.31256
lhand -24.5647 -3.33712
lfingers 7.12502
lthumb 1.932 26.6339
rfemur -13.3588 -2.89081 19.4308
rtibia 21.8082
rfoot -13.5834 -2.90959
rtoes 8.83233
lfemur -12.6513 6.6206 -17.4581
ltibia 20.5468
lfoot -11.765 4.37518
ltoes -2.3557
266
root 0.362625 17.508 -14.1614 6.00204 -0.607104 -1.67063
lowerback -0.800197 -0.451285 0.294444
upperback 3.05302 -0.660478 1.58864
thorax 3.60252 -0.346237 1.44388
lowerneck -14.299 0.642861 -1.95189
upperneck 31.7358 1.22014 0.817633
head 12.9545 0.406243 0.840517
rclavicle 0 -1.8487e-014
rhumerus -22.2928 -16.7439 -79.5599
rradius 24.7896
rwrist 32.6304
rhand -19.0561 -26.387
rfingers 7.12502
rthumb 7.25103 -56.2427
lclavicle 0 -1.8487e-014
lhumerus -20.8769 0.954204 85.1779
lradius 18.7483
lwrist 1.32321
lhand -24.6026 -3.41812
lfingers 7.12502
lthumb 1.89533 26.5532
rfemur -13.453 -2.88361 19.4368
rtibia 21.8877
rfoot -13.5936 -2.93425
rtoes 8.79454
lfemur -12.7687 6.632 -17.4632
ltibia 20.6529
lfoot -11.7821 4.36264
ltoes -2.41564
267
root 0.362309 17.5063 -14.167 6.0378 -0.589121 -1.6779
lowerback -0.732178 -0.44664 0.295192
upperback 3.06563 -0.653586 1.58777
thorax 3.57692 -0.34276 1.44328
lowerneck -14.3057 0.633727 -1.95282
upperneck 31.6938 1.20668 0.819019
head 12.9385 0.400873 0.838839
rclavicle 2.38542e-015 7.7526e-015
rhumerus -22.2326 -16.7255 -79.5593
rradius 24.8002
rwrist 32.6273
rhand -19.0762 -26.3594
rfingers 7.12502
rthumb 7.23157 -56.2158
lclavicle 2.38542e-015 7.7526e-015
lhumerus -20.805 0.971297 85.1401
lradius 18.7677
lwrist 1.34997
lhand -24.6393 -3.49482
lfingers 7.12502
lthumb 1.85992 26.4768
rfemur -13.5628 -2.862 19.4491
rtibia 21.9828
rfoot -13.6046 -2.97083
rtoes 8.74321
lfemur -12.9036 6.64591 -17.4625
ltibia 20.7783
lfoot -11.8033 4.35016
ltoes -2.47495
268
root 0.362014 17.5041 -14.1737 6.07658 -0.5747 -1.68486
lowerback -0.653858 -0.439638 0.294838
upperback 3.08061 -0.643419 1.5867
thorax 3.54788 -0.337681 1.44329
lowerneck -14.3108 0.625252 -1.94758
upperneck 31.6383 1.19428 0.814452
head 12.9166 0.396057 0.833799
rclavicle 8.94531e-016 8.74653e-015
rhumerus -22.1714 -16.6998 -79.5593
rradius 24.8177
rwrist 32.6141
rhand -19.096 -26.3301
rfingers 7.12502
rthumb 7.21252 -56.1871
lclavicle 8.94531e-016 8.74653e-015
lhumerus -20.729 0.979724 85.1034
lradius 18.7879
lwrist 1.3902
lhand -24.6712 -3.55573
lfingers 7.12502
lthumb 1.82913 26.4162
rfemur -13.69 -2.83669 19.4614
rtibia 22.0964
rfoot -13.6184 -3.01071
rtoes 8.67253
lfemur -13.0543 6.65936 -17.4629
ltibia 20.9216
lfoot -11.8271 4.34178
ltoes -2.52806
269
root 0.361668 17.5017 -14.1814 6.12024 -0.565912 -1.69517
lowerback -0.566617 -0.429861 0.293788
upperback 3.09812 -0.629547 1.58846
thorax 3.51638 -0.330824 1.44677
lowerneck -14.319 0.615792 -1.94029
upperneck 31.5707 1.18149 0.804931
head 12.8905 0.390778 0.826341
rclavicle 3.23025e-015 4.96962e-015
rhumerus -22.1109 -16.6611 -79.5579
rradius 24.8446
rwrist 32.5857
rhand -19.122 -26.3045
rfingers 7.12502
rthumb 7.18743 -56.1625
lclavicle 3.23025e-015 4.96962e-015
lhumerus -20.6501 0.991148 85.0688
lradius 18.8106
lwrist 1.44172
lhand -24.6958 -3.60977
lfingers 7.12502
lthumb 1.80539 26.3623
rfemur -13.8369 -2.8028 19.4779
rtibia 22.2286
rfoot -13.6351 -3.05604
rtoes 8.59981
lfemur -13.223 6.67499 -17.4605
ltibia 21.084
lfoot -11.8542 4.33708
ltoes -2.57909
270
root 0.361937 17.4988 -14.1904 6.1659 -0.558241 -1.69692
lowerback -0.46673 -0.421061 0.287855
upperback 3.11622 -0.616634 1.58759
thorax 3.47838 -0.324532 1.45029
lowerneck -14.3063 0.610453 -1.93497
upperneck 31.4856 1.17385 0.797813
head 12.8525 0.388034 0.820609
rclavicle -1.98785e-016 9.14409e-015
rhumerus -22.0587 -16.5999 -79.5577
rradius 24.8864
rwrist 32.5233
rhand -19.1304 -26.3122
rfingers 7.12502
rthumb 7.1793 -56.1704
lclavicle -1.98785e-016 9.14409e-015
lhumerus -20.5822 1.00173 85.0347
lradius 18.85
lwrist 1.4987
lhand -24.7249 -3.63362
lfingers 7.12502
lthumb 1.77723 26.3387
rfemur -14.0008 -2.78883 19.4839
rtibia 22.3787
rfoot -13.6547 -3.08527
rtoes 8.52662
lfemur -13.4072 6.68818 -17.4708
ltibia 21.2654
lfoot -11.8862 4.33679
ltoes -2.63007
